HIERARCHY
ROOT pelvis
{
  OFFSET 0 100 0
  CHANNELS 6 Xposition Yposition Zposition Zrotation Xrotation Yrotation
  JOINT pelvis_right_femur
  {
    OFFSET -10.78128 -3.44521 -0.5502486
    CHANNELS 3 Zrotation Xrotation Yrotation
    JOINT right_femur_tibia
    {
      OFFSET -0.8047443 -44.0398 -0.1307829
      CHANNELS 3 Zrotation Xrotation Yrotation
      JOINT right_tibia_foot
      {
        OFFSET 3.006224 -47.83518 -5
        CHANNELS 3 Zrotation Xrotation Yrotation
        End Site
        {
          OFFSET 0 -5 15
        }
      }
    }
  }
  JOINT pelvis_left_femur
  {
    OFFSET 10.78128 -3.44521 -0.5502486
    CHANNELS 3 Zrotation Xrotation Yrotation
    JOINT left_femur_tibia
    {
      OFFSET 0.8047443 -44.0398 -0.1307829
      CHANNELS 3 Zrotation Xrotation Yrotation
      JOINT left_tibia_foot
      {
        OFFSET -4.370144 -48.10324 -4.275266
        CHANNELS 3 Zrotation Xrotation Yrotation
        End Site
        {
          OFFSET 0 -5 15
        }
      }
    }
  }
  JOINT pelvis_spine1
  {
    OFFSET 0 6.468898 -3.129235
    CHANNELS 3 Zrotation Xrotation Yrotation
    JOINT spine1
    {
      OFFSET 0 23.15396 4.99043
      CHANNELS 3 Zrotation Xrotation Yrotation
      JOINT spine2
      {
        OFFSET 0 20.79997 -5.064912
        CHANNELS 3 Zrotation Xrotation Yrotation
        JOINT neck
        {
          OFFSET 0 14.38658 9.616178
          CHANNELS 3 Zrotation Xrotation Yrotation
          End Site
          {
            OFFSET 0 20 0
          }
        }
      }
      JOINT right_manubrium
      {
        OFFSET -5.722621 16.35077 3.967754
        CHANNELS 3 Zrotation Xrotation Yrotation
        JOINT right_clavicle
        {
          OFFSET -13.16364 1.694482 -4.693211
          CHANNELS 3 Zrotation Xrotation Yrotation
          JOINT right_humerus
          {
            OFFSET -28.5034 -0.3100689 -2.792744
            CHANNELS 3 Zrotation Xrotation Yrotation
            JOINT right_radius
            {
              OFFSET -25.15693 0.02248979 -1.271978
              CHANNELS 3 Zrotation Xrotation Yrotation
              End Site
              {
                OFFSET -15 0 0
              }
            }
          }
        }
      }
      JOINT left_manubrium
      {
        OFFSET 5.722621 16.35077 3.967754
        CHANNELS 3 Zrotation Xrotation Yrotation
        JOINT left_clavicle
        {
          OFFSET 13.16364 1.694482 -4.693211
          CHANNELS 3 Zrotation Xrotation Yrotation
          JOINT left_humerus
          {
            OFFSET 29.39168 -1.063119 -2.237045
            CHANNELS 3 Zrotation Xrotation Yrotation
            JOINT left_radius
            {
              OFFSET 24.59957 -0.9528479 0.9047498
              CHANNELS 3 Zrotation Xrotation Yrotation
              End Site
              {
                OFFSET 15 -0 -0
              }
            }
          }
        }
      }
    }
  }
}
MOTION
Frames: 17
Frame Time: 0.0416666666667
-252.489 103.7567 -286.1652 9.687386 -3.200345 52.78142 4.236945 -5.075977 -6.022992 -0 4.091824 -0 -19.94122 3.958067 3.578966 -0.9761052 -8.132043 4.552879 -0 43.02471 -0 9.166555 0.5523963 8.423742 -0.722819 -3.935702 10.54288 1.700898 21.22258 -10.62377 -4.162152 17.20932 4.951379 9.42253 -16.554 -6.117215 0.4871047 -30.11111 15.17057 91.95802 13.75969 -26.11871 -0 0 24.46044 -17.60863 -0.6074803 2.546876 4.351234 -37.73055 -17.25677 -88.1889 -2.289005 28.0985 0 0 -24.12924 16.51902 -2.201442 -8.812851
-247.5902 103.7562 -283.1645 9.651711 -3.307267 52.15288 4.236945 -5.075977 -6.022992 -0 4.091824 -0 -19.94122 3.958067 3.578966 -0.9761052 -8.132043 4.552879 -0 43.02471 -0 9.166555 0.5523963 8.423742 -0.722819 -3.935702 10.54288 1.700898 21.22258 -10.62377 -4.162152 17.20932 4.951379 9.42253 -16.554 -6.117215 0.4871047 -30.11111 15.17057 91.95802 13.75969 -26.11871 -0 0 24.46044 -17.60863 -0.6074803 2.546876 4.351234 -37.73055 -17.25677 -88.1889 -2.289005 28.0985 0 0 -24.12924 16.51902 -2.201442 -8.812851
-242.7251 103.7557 -280.1096 9.614858 -3.413793 51.5242 4.236945 -5.075977 -6.022992 -0 4.091824 -0 -19.94122 3.958067 3.578966 -0.9761052 -8.132043 4.552879 -0 43.02471 -0 9.166555 0.5523963 8.423742 -0.722819 -3.935702 10.54288 1.700898 21.22258 -10.62377 -4.162152 17.20932 4.951379 9.42253 -16.554 -6.117215 0.4871047 -30.11111 15.17057 91.95802 13.75969 -26.11871 -0 0 24.46044 -17.60863 -0.6074803 2.546876 4.351234 -37.73055 -17.25677 -88.1889 -2.289005 28.0985 0 0 -24.12924 16.51902 -2.201442 -8.812851
-237.8942 103.7552 -277.0008 9.576833 -3.519908 50.89539 4.236945 -5.075977 -6.022992 -0 4.091824 -0 -19.94122 3.958067 3.578966 -0.9761052 -8.132043 4.552879 -0 43.02471 -0 9.166555 0.5523963 8.423742 -0.722819 -3.935702 10.54288 1.700898 21.22258 -10.62377 -4.162152 17.20932 4.951379 9.42253 -16.554 -6.117215 0.4871047 -30.11111 15.17057 91.95802 13.75969 -26.11871 -0 0 24.46044 -17.60863 -0.6074803 2.546876 4.351234 -37.73055 -17.25677 -88.1889 -2.289005 28.0985 0 0 -24.12924 16.51902 -2.201442 -8.812851
-233.0982 103.7547 -273.8386 9.537638 -3.625601 50.26643 4.236945 -5.075977 -6.022992 -0 4.091824 -0 -19.94122 3.958067 3.578966 -0.9761052 -8.132043 4.552879 -0 43.02471 -0 9.166555 0.5523963 8.423742 -0.722819 -3.935702 10.54288 1.700898 21.22258 -10.62377 -4.162152 17.20932 4.951379 9.42253 -16.554 -6.117215 0.4871047 -30.11111 15.17057 91.95802 13.75969 -26.11871 -0 0 24.46044 -17.60863 -0.6074803 2.546876 4.351234 -37.73055 -17.25677 -88.1889 -2.289005 28.0985 0 0 -24.12924 16.51902 -2.201442 -8.812851
-228.3376 103.7542 -270.6233 9.497279 -3.730857 49.63733 4.236945 -5.075977 -6.022992 -0 4.091824 -0 -19.94122 3.958067 3.578966 -0.9761052 -8.132043 4.552879 -0 43.02471 -0 9.166555 0.5523963 8.423742 -0.722819 -3.935702 10.54288 1.700898 21.22258 -10.62377 -4.162152 17.20932 4.951379 9.42253 -16.554 -6.117215 0.4871047 -30.11111 15.17057 91.95802 13.75969 -26.11871 -0 0 24.46044 -17.60863 -0.6074803 2.546876 4.351234 -37.73055 -17.25677 -88.1889 -2.289005 28.0985 0 0 -24.12924 16.51902 -2.201442 -8.812851
-223.613 103.7537 -267.3553 9.455759 -3.835665 49.00808 4.236945 -5.075977 -6.022992 -0 4.091824 -0 -19.94122 3.958067 3.578966 -0.9761052 -8.132043 4.552879 -0 43.02471 -0 9.166555 0.5523963 8.423742 -0.722819 -3.935702 10.54288 1.700898 21.22258 -10.62377 -4.162152 17.20932 4.951379 9.42253 -16.554 -6.117215 0.4871047 -30.11111 15.17057 91.95802 13.75969 -26.11871 -0 0 24.46044 -17.60863 -0.6074803 2.546876 4.351234 -37.73055 -17.25677 -88.1889 -2.289005 28.0985 0 0 -24.12924 16.51902 -2.201442 -8.812851
-218.925 103.7532 -264.0349 9.413082 -3.940012 48.37867 4.236945 -5.075977 -6.022992 -0 4.091824 -0 -19.94122 3.958067 3.578966 -0.9761052 -8.132043 4.552879 -0 43.02471 -0 9.166555 0.5523963 8.423742 -0.722819 -3.935702 10.54288 1.700898 21.22258 -10.62377 -4.162152 17.20932 4.951379 9.42253 -16.554 -6.117215 0.4871047 -30.11111 15.17057 91.95802 13.75969 -26.11871 -0 0 24.46044 -17.60863 -0.6074803 2.546876 4.351234 -37.73055 -17.25677 -88.1889 -2.289005 28.0985 0 0 -24.12924 16.51902 -2.201442 -8.812851
-214.2742 103.7527 -260.6628 9.369254 -4.043885 47.7491 4.236945 -5.075977 -6.022992 -0 4.091824 -0 -19.94122 3.958067 3.578966 -0.9761052 -8.132043 4.552879 -0 43.02471 -0 9.166555 0.5523963 8.423742 -0.722819 -3.935702 10.54288 1.700898 21.22258 -10.62377 -4.162152 17.20932 4.951379 9.42253 -16.554 -6.117215 0.4871047 -30.11111 15.17057 91.95802 13.75969 -26.11871 -0 0 24.46044 -17.60863 -0.6074803 2.546876 4.351234 -37.73055 -17.25677 -88.1889 -2.289005 28.0985 0 0 -24.12924 16.51902 -2.201442 -8.812851
-209.6611 103.7522 -257.2391 9.324278 -4.147271 47.11938 4.236945 -5.075977 -6.022992 -0 4.091824 -0 -19.94122 3.958067 3.578966 -0.9761052 -8.132043 4.552879 -0 43.02471 -0 9.166555 0.5523963 8.423742 -0.722819 -3.935702 10.54288 1.700898 21.22258 -10.62377 -4.162152 17.20932 4.951379 9.42253 -16.554 -6.117215 0.4871047 -30.11111 15.17057 91.95802 13.75969 -26.11871 -0 0 24.46044 -17.60863 -0.6074803 2.546876 4.351234 -37.73055 -17.25677 -88.1889 -2.289005 28.0985 0 0 -24.12924 16.51902 -2.201442 -8.812851
-205.0864 103.7518 -253.7644 9.27816 -4.250157 46.48949 4.236945 -5.075977 -6.022992 -0 4.091824 -0 -19.94122 3.958067 3.578966 -0.9761052 -8.132043 4.552879 -0 43.02471 -0 9.166555 0.5523963 8.423742 -0.722819 -3.935702 10.54288 1.700898 21.22258 -10.62377 -4.162152 17.20932 4.951379 9.42253 -16.554 -6.117215 0.4871047 -30.11111 15.17057 91.95802 13.75969 -26.11871 -0 0 24.46044 -17.60863 -0.6074803 2.546876 4.351234 -37.73055 -17.25677 -88.1889 -2.289005 28.0985 0 0 -24.12924 16.51902 -2.201442 -8.812851
-200.5505 103.7513 -250.2391 9.230904 -4.352532 45.85943 4.236945 -5.075977 -6.022992 -0 4.091824 -0 -19.94122 3.958067 3.578966 -0.9761052 -8.132043 4.552879 -0 43.02471 -0 9.166555 0.5523963 8.423742 -0.722819 -3.935702 10.54288 1.700898 21.22258 -10.62377 -4.162152 17.20932 4.951379 9.42253 -16.554 -6.117215 0.4871047 -30.11111 15.17057 91.95802 13.75969 -26.11871 -0 0 24.46044 -17.60863 -0.6074803 2.546876 4.351234 -37.73055 -17.25677 -88.1889 -2.289005 28.0985 0 0 -24.12924 16.51902 -2.201442 -8.812851
-196.0541 103.7508 -246.6636 9.182515 -4.454382 45.2292 4.236945 -5.075977 -6.022992 -0 4.091824 -0 -19.94122 3.958067 3.578966 -0.9761052 -8.132043 4.552879 -0 43.02471 -0 9.166555 0.5523963 8.423742 -0.722819 -3.935702 10.54288 1.700898 21.22258 -10.62377 -4.162152 17.20932 4.951379 9.42253 -16.554 -6.117215 0.4871047 -30.11111 15.17057 91.95802 13.75969 -26.11871 -0 0 24.46044 -17.60863 -0.6074803 2.546876 4.351234 -37.73055 -17.25677 -88.1889 -2.289005 28.0985 0 0 -24.12924 16.51902 -2.201442 -8.812851
-191.5977 103.7503 -243.0384 9.132998 -4.555695 44.5988 4.236945 -5.075977 -6.022992 -0 4.091824 -0 -19.94122 3.958067 3.578966 -0.9761052 -8.132043 4.552879 -0 43.02471 -0 9.166555 0.5523963 8.423742 -0.722819 -3.935702 10.54288 1.700898 21.22258 -10.62377 -4.162152 17.20932 4.951379 9.42253 -16.554 -6.117215 0.4871047 -30.11111 15.17057 91.95802 13.75969 -26.11871 -0 0 24.46044 -17.60863 -0.6074803 2.546876 4.351234 -37.73055 -17.25677 -88.1889 -2.289005 28.0985 0 0 -24.12924 16.51902 -2.201442 -8.812851
-187.1819 103.7498 -239.3639 9.082359 -4.656459 43.96822 4.236945 -5.075977 -6.022992 -0 4.091824 -0 -19.94122 3.958067 3.578966 -0.9761052 -8.132043 4.552879 -0 43.02471 -0 9.166555 0.5523963 8.423742 -0.722819 -3.935702 10.54288 1.700898 21.22258 -10.62377 -4.162152 17.20932 4.951379 9.42253 -16.554 -6.117215 0.4871047 -30.11111 15.17057 91.95802 13.75969 -26.11871 -0 0 24.46044 -17.60863 -0.6074803 2.546876 4.351234 -37.73055 -17.25677 -88.1889 -2.289005 28.0985 0 0 -24.12924 16.51902 -2.201442 -8.812851
-182.8071 103.7493 -235.6406 9.030603 -4.756661 43.33746 4.236945 -5.075977 -6.022992 -0 4.091824 -0 -19.94122 3.958067 3.578966 -0.9761052 -8.132043 4.552879 -0 43.02471 -0 9.166555 0.5523963 8.423742 -0.722819 -3.935702 10.54288 1.700898 21.22258 -10.62377 -4.162152 17.20932 4.951379 9.42253 -16.554 -6.117215 0.4871047 -30.11111 15.17057 91.95802 13.75969 -26.11871 -0 0 24.46044 -17.60863 -0.6074803 2.546876 4.351234 -37.73055 -17.25677 -88.1889 -2.289005 28.0985 0 0 -24.12924 16.51902 -2.201442 -8.812851
-178.474 103.7488 -231.8689 8.977735 -4.856289 42.70651 4.236945 -5.075977 -6.022992 -0 4.091824 -0 -19.94122 3.958067 3.578966 -0.9761052 -8.132043 4.552879 -0 43.02471 -0 9.166555 0.5523963 8.423742 -0.722819 -3.935702 10.54288 1.700898 21.22258 -10.62377 -4.162152 17.20932 4.951379 9.42253 -16.554 -6.117215 0.4871047 -30.11111 15.17057 91.95802 13.75969 -26.11871 -0 0 24.46044 -17.60863 -0.6074803 2.546876 4.351234 -37.73055 -17.25677 -88.1889 -2.289005 28.0985 0 0 -24.12924 16.51902 -2.201442 -8.812851
